<?xml version="1.0" standalone="no"?>
<!DOCTYPE svg PUBLIC "-//W3C//DTD SVG 20010904//EN"
 "http://www.w3.org/TR/2001/REC-SVG-20010904/DTD/svg10.dtd">
<svg version="1.0" xmlns="http://www.w3.org/2000/svg"
 width="512.000000pt" height="529.000000pt" viewBox="0 0 512.000000 529.000000"
 preserveAspectRatio="xMidYMid meet">
<metadata>
Created by potrace 1.16, written by Peter Selinger 2001-2019
</metadata>
<g transform="translate(0.000000,529.000000) scale(0.100000,-0.100000)"
fill="#000000" stroke="none">
<path d="M901 5230 c-165 -165 -277 -445 -333 -835 -30 -208 -11 -585 41 -805
17 -68 17 -82 4 -155 -11 -61 -13 -113 -7 -220 10 -173 10 -263 0 -336 l-7
-56 -155 -6 c-149 -6 -158 -5 -210 18 l-54 24 0 -45 0 -44 -61 0 c-52 0 -60
-2 -55 -16 20 -51 18 -60 -19 -88 -38 -29 -38 -42 2 -57 l24 -9 -30 -54 c-17
-29 -31 -56 -31 -60 0 -3 21 -6 48 -6 l48 0 -4 -40 -4 -40 41 0 c35 0 54 -10
143 -78 190 -144 442 -282 633 -348 l80 -27 -4 -376 c-2 -207 -4 -423 -4 -481
1 -182 50 -319 152 -421 l60 -60 -9 -72 c-14 -111 -12 -290 5 -365 15 -66 67
-172 84 -172 19 0 103 108 140 180 43 82 77 198 87 295 4 35 9 67 13 72 3 5
35 17 71 27 146 39 303 136 461 284 72 68 84 74 269 154 151 64 212 95 273
141 l78 59 52 -10 c29 -6 55 -7 58 -4 4 4 19 45 34 92 15 47 31 89 35 94 5 4
64 -8 134 -28 69 -20 128 -36 131 -36 3 0 5 33 5 73 0 41 3 121 6 178 l7 105
156 -22 c86 -12 159 -19 162 -15 4 3 22 111 42 239 19 128 37 235 38 236 2 2
289 42 638 90 349 47 635 87 636 89 2 1 69 211 150 467 81 256 152 469 156
474 5 6 9 20 9 33 0 26 16 28 -223 -23 -575 -123 -1042 -281 -1485 -502 -125
-63 -174 -92 -177 -107 -3 -11 -16 -162 -30 -335 -14 -173 -28 -334 -31 -357
l-5 -43 -68 0 c-37 0 -102 -3 -144 -6 l-77 -7 0 -133 0 -133 -30 11 c-35 12
-44 27 -55 83 -21 119 -121 376 -214 550 l-48 90 39 45 c58 66 150 187 190
250 56 87 139 257 173 355 31 89 33 91 93 130 34 22 62 43 62 47 0 4 -14 15
-31 25 -29 17 -30 20 -25 66 6 43 5 47 -14 47 -14 0 -20 7 -20 24 0 24 -16 36
-50 36 -12 0 -22 12 -30 35 l-12 35 -42 -35 c-24 -19 -45 -35 -48 -35 -3 0
-11 13 -18 30 -7 17 -15 30 -17 30 -3 0 -23 -20 -45 -45 -27 -31 -52 -48 -81
-56 -60 -16 -162 -70 -235 -124 -35 -25 -65 -45 -67 -43 -18 18 -97 241 -105
299 -16 102 -38 185 -61 232 -11 21 -19 40 -17 42 2 2 84 -7 183 -20 282 -37
473 -48 692 -42 250 7 376 33 482 98 l35 21 -55 34 c-228 143 -515 250 -775
289 -115 17 -381 20 -504 5 -105 -13 -289 -54 -393 -87 -76 -24 -80 -24 -141
-9 -234 59 -461 30 -674 -85 -57 -30 -72 -35 -68 -21 9 30 35 201 53 357 21
183 24 584 5 725 -16 121 -42 253 -52 263 -4 5 -31 -14 -59 -43z m59 -652
c-11 -57 -39 -173 -61 -258 -131 -501 -164 -648 -139 -608 17 27 195 141 315
202 149 75 240 99 380 99 81 1 136 -5 210 -22 l100 -23 100 31 c115 35 251 65
379 82 120 15 445 7 551 -15 150 -31 235 -57 235 -73 0 -8 -33 -48 -72 -87
-78 -77 -176 -136 -226 -136 -38 0 -319 41 -552 80 -98 17 -181 30 -185 30 -4
0 21 -30 54 -67 82 -89 117 -163 141 -299 21 -116 39 -177 76 -260 l23 -52
-40 -6 c-56 -9 -122 -77 -143 -147 -34 -114 -8 -238 63 -302 21 -19 44 -37 52
-39 19 -7 -39 -91 -131 -192 -48 -52 -70 -84 -70 -102 0 -21 3 -23 19 -15 11
6 49 43 86 83 174 190 268 403 252 573 l-6 64 67 50 c78 59 166 104 237 123
28 7 58 23 68 35 24 29 31 29 45 -3 l12 -25 44 36 c41 33 44 34 49 15 3 -14
13 -20 31 -20 22 0 26 -4 26 -30 0 -20 5 -30 15 -30 19 0 19 -9 -1 -31 -14
-16 -14 -19 10 -34 34 -22 33 -28 -8 -50 -29 -16 -39 -31 -62 -94 -14 -42 -34
-86 -43 -97 -135 -175 -211 -267 -295 -354 -161 -166 -224 -262 -245 -373 l-8
-46 46 23 c25 13 67 43 93 66 l48 41 74 -153 c111 -229 172 -411 190 -564 l6
-51 -44 42 c-59 55 -146 96 -215 102 -74 7 -149 -24 -192 -79 -33 -40 -33 -46
-4 -112 17 -39 17 -40 -3 -25 -133 94 -211 142 -246 151 -38 10 -48 21 -103
102 -75 111 -99 166 -72 166 5 0 16 -15 24 -33 12 -29 48 -80 124 -177 14 -17
23 -22 30 -15 7 7 -7 33 -45 80 -51 64 -84 115 -84 130 0 16 102 -69 191 -158
64 -64 100 -93 105 -86 4 8 -35 53 -105 122 l-112 110 47 44 c127 123 289 123
399 1 27 -29 40 -37 48 -29 16 16 -73 98 -140 128 -105 48 -221 20 -325 -78
-52 -49 -53 -50 -80 -34 -15 8 -44 16 -65 18 -34 2 -39 -1 -55 -33 -44 -87 20
-208 242 -457 90 -101 100 -116 100 -151 0 -48 -18 -61 -190 -145 -63 -31
-187 -96 -275 -146 -175 -99 -291 -152 -381 -176 -73 -19 -168 -20 -183 -2 -6
8 -29 22 -51 32 -46 21 -54 40 -72 174 -8 62 -8 114 0 200 7 70 9 189 5 301
-3 102 -2 238 2 303 l7 119 44 -7 c35 -5 44 -3 44 9 0 36 -190 144 -475 271
-102 45 -190 93 -275 151 -121 81 -127 84 -183 84 l-57 0 6 40 7 40 -37 0 -36
0 24 49 25 49 -21 6 -22 5 23 25 c14 14 21 32 18 40 -5 13 3 16 43 16 49 0 50
0 50 31 0 26 3 30 17 23 10 -5 95 -7 189 -5 l171 3 12 -48 c60 -238 300 -415
748 -553 242 -74 389 -61 482 45 34 39 69 119 57 131 -2 3 -28 -2 -58 -10
-123 -36 -436 -87 -531 -87 -87 0 -363 128 -466 216 -35 31 -35 33 -18 51 23
26 24 160 1 226 -18 53 -82 118 -137 138 l-36 13 2 90 c1 50 -2 152 -7 226
-10 162 7 288 54 389 17 35 30 66 30 68 0 8 -53 -27 -67 -44 -15 -20 -20 -9
-38 88 -29 160 -40 405 -26 571 l12 151 67 80 c77 91 164 166 237 203 l50 25
3 -31 c2 -16 -6 -76 -18 -132z m4086 -1375 c-4 -10 -66 -206 -140 -436 -74
-230 -136 -421 -139 -424 -3 -2 -101 18 -219 46 -394 93 -818 172 -1113 206
-77 9 -144 17 -149 19 -14 3 140 85 290 154 364 167 779 304 1239 408 219 49
239 52 231 27z m-1706 -1132 c33 -205 59 -375 57 -377 -2 -2 -74 6 -161 18
l-158 21 -59 50 c-33 27 -57 53 -53 58 3 5 61 9 130 9 122 0 124 0 124 23 0
21 49 586 51 597 2 10 9 -28 69 -399z m-1386 -374 c47 -66 53 -81 37 -92 -11
-6 -85 98 -105 148 -8 18 -16 46 -20 62 -6 27 -4 26 18 -12 13 -23 45 -71 70
-106z m-699 -1264 c9 -32 30 -86 46 -122 23 -50 29 -78 29 -131 0 -58 -3 -70
-24 -90 l-25 -23 -7 27 c-3 15 -4 77 -2 137 3 84 2 109 -8 109 -12 0 -15 -11
-27 -90 -3 -14 -5 35 -6 108 0 72 1 132 3 132 3 0 12 -26 21 -57z"/>
<path d="M1824 3500 c-97 -49 -111 -174 -28 -252 99 -92 234 -28 236 112 0
119 -106 192 -208 140z m68 -47 c44 -50 22 -113 -38 -113 -30 0 -37 4 -49 35
-16 37 -8 78 17 88 27 11 55 7 70 -10z"/>
<path d="M851 3294 c-30 -21 -61 -89 -61 -134 0 -42 29 -108 58 -134 12 -10
40 -20 64 -23 84 -9 158 73 158 177 0 62 -16 92 -60 115 -39 20 -129 19 -159
-1z m149 -34 c27 -27 25 -56 -5 -85 -44 -45 -105 -21 -105 40 0 58 69 86 110
45z"/>
<path d="M1385 3141 c-33 -7 -37 -21 -8 -32 18 -6 53 15 53 33 0 9 -1 9 -45
-1z"/>
<path d="M1752 3045 c-40 -42 -140 -55 -271 -35 l-67 11 -36 -34 c-51 -48
-103 -70 -182 -76 -80 -7 -106 -31 -34 -31 l43 -1 45 -81 c104 -189 242 -368
311 -404 60 -30 108 -14 140 47 36 72 50 163 54 373 4 184 6 201 25 221 16 17
18 24 8 28 -8 3 -24 -5 -36 -18z m-43 -186 c23 -9 23 -10 16 -127 -7 -128 -27
-237 -50 -281 -26 -51 -75 -55 -130 -11 -42 34 -122 130 -172 207 -32 50 -33
55 -19 80 17 33 91 105 124 122 56 29 167 34 231 10z"/>
</g>
</svg>
